<svg width="200" height="200" viewBox="0 0 200 200" fill="none" xmlns="http://www.w3.org/2000/svg">
<path d="M78.3812 11.882C80.5232 4.5195 88.7579 -0.0415959 97.0989 2.93669L97.0999 2.93571L163.14 26.006L163.158 26.0119L163.176 26.0197C170.731 28.9903 174.235 37.4172 171.465 45.1545L122.279 188.194L122.28 188.195C119.857 195.504 112.473 200.07 104.54 197.667L104.518 197.66L104.496 197.653L36.1673 173.477L35.8372 173.36C28.9454 170.819 25.3949 163.324 27.7728 156.328L27.7767 156.32L78.3812 11.882Z" fill="url(#paint0_linear_1_2)" stroke="#959494" stroke-width="2"/>
<path d="M159.31 30.85L95.42 8.99001C90.43 7.23001 86.28 10.01 85.04 14.72L62 80.5L142 109L164.43 43.78C166.26 38.51 164.71 33.03 159.31 30.85Z" fill="#F26F0D"/>
<path d="M60.09 86.8L35.28 157.08C33.99 161.16 36.06 165.39 39.91 166.72L106.06 190.71C110.71 192.18 114.41 188.84 116.07 183.96L139.84 114.61L60.09 86.8Z" fill="url(#paint1_linear_1_2)"/>
<path d="M126.42 36.26L95.19 76.71L102.72 79.38L133.88 38.62L126.42 36.26Z" fill="#FEFFFE"/>
<path d="M119.96 118.27C115.28 118.06 112.96 121.67 113.27 126.09L91.72 135.79C89.92 133.81 87.21 132.87 85.46 133.73L74.61 111.84C77.92 108.87 76.98 102.28 71.32 100.24C65.43 98.97 62.48 104.62 63.41 108.77C64.42 112.98 68.12 114.58 71.36 113.59L82.68 134.92C80.84 136.42 80.04 138.33 80.13 140.83L57.82 150.37C55.84 147.62 51.01 146.74 47.81 149.55C44.12 153.19 45.63 158.89 49.99 160.93C54.92 162.66 59.52 158.82 59.16 154.12L81.02 144.28C82.89 147.09 86.04 147.25 88.08 146.34L99.18 167.46C95.06 170.99 96.05 176.15 100.41 178.75C105.44 180.87 109.71 176.96 110.12 173.22C110.31 168.88 106.48 165.69 102.04 166.06L91.22 144.73C93.05 143.48 93.62 140.84 93.19 138.6L114.21 129.41C116.82 133.01 122.61 132.78 125.22 129.6C128.48 125.77 126.41 119.19 119.96 118.27Z" fill="#B9E8F2"/>
<defs>
<linearGradient id="paint0_linear_1_2" x1="54.1908" y1="17.4036" x2="133.037" y2="181.855" gradientUnits="userSpaceOnUse">
<stop stop-color="#505050"/>
<stop offset="1" stop-color="#272727"/>
</linearGradient>
<linearGradient id="paint1_linear_1_2" x1="67.6978" y1="91.8004" x2="107.257" y2="187.974" gradientUnits="userSpaceOnUse">
<stop stop-color="#1C74AE"/>
<stop offset="1" stop-color="#125A8E"/>
</linearGradient>
</defs>
</svg>
